<?xml version="1.0" encoding="UTF-8" standalone="no"?>
<!-- Created with Inkscape (http://www.inkscape.org/) -->

<svg
   version="1.1"
   id="svg8530"
   width="800"
   height="800"
   viewBox="0 0 800 800"
   sodipodi:docname="yacht-on-sea-publicdomainvectors.org.svg"
   inkscape:version="1.2 (dc2aedaf03, 2022-05-15)"
   xmlns:inkscape="http://www.inkscape.org/namespaces/inkscape"
   xmlns:sodipodi="http://sodipodi.sourceforge.net/DTD/sodipodi-0.dtd"
   xmlns="http://www.w3.org/2000/svg"
   xmlns:svg="http://www.w3.org/2000/svg">
  <defs
     id="defs8534">
    <clipPath
       clipPathUnits="userSpaceOnUse"
       id="clipPath8548">
      <path
         d="M 0,600 H 600 V 0 H 0 Z"
         id="path8546" />
    </clipPath>
  </defs>
  <sodipodi:namedview
     id="namedview8532"
     pagecolor="#ffffff"
     bordercolor="#000000"
     borderopacity="0.25"
     inkscape:showpageshadow="2"
     inkscape:pageopacity="0.0"
     inkscape:pagecheckerboard="0"
     inkscape:deskcolor="#d1d1d1"
     showgrid="false"
     inkscape:zoom="1.04625"
     inkscape:cx="400"
     inkscape:cy="400.4779"
     inkscape:window-width="1920"
     inkscape:window-height="1017"
     inkscape:window-x="-8"
     inkscape:window-y="-8"
     inkscape:window-maximized="1"
     inkscape:current-layer="g8538">
    <inkscape:page
       x="0"
       y="0"
       id="page8536"
       width="800"
       height="800" />
  </sodipodi:namedview>
  <g
     id="g8538"
     inkscape:groupmode="layer"
     inkscape:label="Page 1"
     transform="matrix(1.3333333,0,0,-1.3333333,0,800)">
    <path
       d="M 0,0 H 600 V 600 H 0 Z"
       style="fill:#3a66ad;fill-opacity:1;fill-rule:nonzero;stroke:none"
       id="path8540" />
    <g
       id="g8542">
      <g
         id="g8544"
         clip-path="url(#clipPath8548)">
        <g
           id="g8550"
           transform="translate(368.3926,453.7246)">
          <path
             d="m 0,0 c -79.528,-22.701 -175.687,-112.886 -207.707,-198.734 l 116.945,-13.045 c -4.679,64.755 27.445,140.555 72.344,199.407 z"
             style="fill:#f2a50f;fill-opacity:1;fill-rule:evenodd;stroke:none"
             id="path8552" />
        </g>
        <g
           id="g8554"
           transform="translate(368.3926,453.7246)">
          <path
             d="m 0,0 c -79.528,-22.701 -175.687,-112.886 -207.707,-198.734 l 49.219,-5.491 C -141.619,-117.895 -83.415,-37.49 0,0"
             style="fill:#e39b13;fill-opacity:1;fill-rule:evenodd;stroke:none"
             id="path8556" />
        </g>
        <g
           id="g8558"
           transform="translate(371.9297,461.9771)">
          <path
             d="m 0,0 -103.4,-241.266 20.367,2.349 L 5.091,-2.546 C 6.944,2.428 1.84,4.295 0,0"
             style="fill:#2b4874;fill-opacity:1;fill-rule:evenodd;stroke:none"
             id="path8560" />
        </g>
        <g
           id="g8562"
           transform="translate(79.1768,186.0664)">
          <path
             d="M 0,0 38.301,39.879 C 123.221,10.7 217.794,57.372 373.28,82.302 L 494.751,101.78 494.331,99.837 373.139,69.751 C 369.194,34.551 337.807,23.251 320.142,0 242.639,38.951 114.681,-24.786 0,0"
             style="fill:#ffffff;fill-opacity:1;fill-rule:evenodd;stroke:none"
             id="path8564" />
        </g>
        <g
           id="g8566"
           transform="translate(106.1328,214.1338)">
          <path
             d="M 0,0 7.092,7.383 C 90.175,-30.339 283.9,50.909 344.636,33.325 342.071,23.557 337.197,15.803 331.236,8.993 269.733,26.474 95.478,-41.452 0,0"
             style="fill:#971a1f;fill-opacity:1;fill-rule:evenodd;stroke:none"
             id="path8568" />
        </g>
        <g
           id="g8570"
           transform="translate(365.6348,428.8931)">
          <path
             d="m 0,0 c 105.984,-24.685 144.904,-74.461 86.822,-160.525 l 8.279,19.731 c 12.131,28.906 -99.671,-10.809 -212.565,-44.042 l -71.741,-29.022 64.659,29.908 C -49.208,-149.102 24.389,-93.291 0,0"
             style="fill:#fbca07;fill-opacity:1;fill-rule:evenodd;stroke:none"
             id="path8572" />
        </g>
        <g
           id="g8574"
           transform="translate(369.9414,425.2529)">
          <path
             d="m 0,0 c 83.359,-19.72 120.046,-56.48 92.394,-116.728 2.639,33.247 -44.886,16.144 -90.537,0.923 C 42.126,-72.229 40.513,-15.285 0,0"
             style="fill:#fae231;fill-opacity:1;fill-rule:evenodd;stroke:none"
             id="path8576" />
        </g>
        <g
           id="g8578"
           transform="translate(437.9492,156.9746)">
          <path
             d="M 0,0 C -121.426,92.214 -251.701,-34.23 -411.633,41.605 -303.929,-59.899 -145.326,50.607 0,0"
             style="fill:#8fb2de;fill-opacity:1;fill-rule:evenodd;stroke:none"
             id="path8580" />
        </g>
        <g
           id="g8582"
           transform="translate(409.4795,136.3711)">
          <path
             d="M 0,0 C -86.841,65.949 -180.013,-24.479 -294.394,29.755 -217.365,-42.841 -103.935,36.192 0,0"
             style="fill:#8fb2de;fill-opacity:1;fill-rule:evenodd;stroke:none"
             id="path8584" />
        </g>
      </g>
    </g>
  </g>
</svg>
