<?xml version="1.0" encoding="UTF-8" standalone="no"?>
<!-- Created with Inkscape (http://www.inkscape.org/) -->

<svg
   version="1.1"
   id="svg7162"
   width="800"
   height="800"
   viewBox="0 0 800 800"
   sodipodi:docname="snow-covered-tops-publicdomainvectors.org.svg"
   inkscape:version="1.2 (dc2aedaf03, 2022-05-15)"
   xmlns:inkscape="http://www.inkscape.org/namespaces/inkscape"
   xmlns:sodipodi="http://sodipodi.sourceforge.net/DTD/sodipodi-0.dtd"
   xmlns="http://www.w3.org/2000/svg"
   xmlns:svg="http://www.w3.org/2000/svg">
  <defs
     id="defs7166">
    <clipPath
       clipPathUnits="userSpaceOnUse"
       id="clipPath7218">
      <path
         d="M 0,600 H 600 V 0 H 0 Z"
         id="path7216" />
    </clipPath>
  </defs>
  <sodipodi:namedview
     id="namedview7164"
     pagecolor="#ffffff"
     bordercolor="#000000"
     borderopacity="0.25"
     inkscape:showpageshadow="2"
     inkscape:pageopacity="0.0"
     inkscape:pagecheckerboard="0"
     inkscape:deskcolor="#d1d1d1"
     showgrid="false"
     inkscape:zoom="1.04625"
     inkscape:cx="400"
     inkscape:cy="400.4779"
     inkscape:window-width="1920"
     inkscape:window-height="1017"
     inkscape:window-x="-8"
     inkscape:window-y="-8"
     inkscape:window-maximized="1"
     inkscape:current-layer="g7170">
    <inkscape:page
       x="0"
       y="0"
       id="page7168"
       width="800"
       height="800" />
  </sodipodi:namedview>
  <g
     id="g7170"
     inkscape:groupmode="layer"
     inkscape:label="Page 1"
     transform="matrix(1.3333333,0,0,-1.3333333,0,800)">
    <path
       d="M 0,0 H 599.513 V 600 H 0 Z"
       style="fill:#956b7f;fill-opacity:1;fill-rule:nonzero;stroke:none"
       id="path7172" />
    <g
       id="g7174"
       transform="translate(241.9515,395.622)">
      <path
         d="m 0,0 -22.57,-49.892 -26.728,-15.443 -8.315,-14.256 -16.037,14.85 -30.886,-54.05 -15.443,1.189 -22.569,-42.767 -16.631,-41.577 -30.886,-26.726 -36.231,-19.009 -15.655,-0.331 v -27.582 h 599.512 v 44.544 h -23.166 l -24.351,7.724 -17.818,14.252 -26.73,30.293 -2.968,20.79 -10.097,20.193 -19.601,13.66 -11.878,-13.066 -22.57,24.351 -21.978,43.954 -28.509,18.413 -19.008,35.043 L 110.476,-25.54 102.161,-57.614 71.275,-45.14 52.268,-1.188 27.322,16.631 Z"
         style="fill:#602e15;fill-opacity:1;fill-rule:nonzero;stroke:none"
         id="path7176" />
    </g>
    <g
       id="g7178"
       transform="translate(527.7451,193.8389)">
      <path
         d="m 0,0 -20.297,23.002 -2.969,20.79 -10.096,20.193 -19.602,13.661 -11.878,-13.067 -22.57,24.353 -21.977,43.953 -28.509,18.412 -19.008,35.043 -18.411,-10.097 -8.316,-32.073 -30.885,12.472 -19.008,43.953 -24.945,17.819 -27.322,-16.631 -22.571,-49.891 -26.727,-15.444 -8.316,-14.255 -16.036,14.849 -30.886,-54.05 -15.443,1.189 -22.57,-42.767 -16.631,-41.576 27.268,-0.957 14.423,22.725 33.651,19.667 28.408,-20.543 21.852,-18.79 16.169,23.162 13.112,19.229 43.703,-4.369 13.111,-26.659 14.858,-12.674 28.845,26.659 24.911,-10.926 24.476,6.119 28.842,-12.673 18.793,12.234 13.111,-5.68 14.421,-15.733 33.653,10.051 z"
         style="fill:#6d4d31;fill-opacity:1;fill-rule:evenodd;stroke:none"
         id="path7180" />
    </g>
    <g
       id="g7182"
       transform="translate(517.5967,205.3418)">
      <path
         d="m 0,0 -10.148,11.499 -2.969,20.79 -10.097,20.193 -19.601,13.661 -11.878,-13.067 -22.571,24.353 -21.976,43.953 -28.51,18.412 -19.008,35.043 -18.411,-10.097 -8.315,-32.073 -30.886,12.473 -19.007,43.952 -24.946,17.819 -27.322,-16.631 -22.571,-49.891 -26.727,-15.444 -8.315,-14.255 -16.037,14.849 -30.886,-54.05 -15.443,1.189 -22.57,-42.767 -9.462,-23.656 20.538,25.262 31.466,25.348 33.653,12.238 12.236,-36.275 23.162,-23.601 -2.621,28.408 13.984,38.46 31.904,9.614 26.222,-24.909 21.851,-46.326 17.482,-4.37 -7.429,41.517 11.799,26.659 48.949,-19.228 6.118,12.236 36.71,-46.764 13.111,7.431 40.644,-11.801 11.364,10.053 L -22.529,10.976 0,-0.002 Z"
         style="fill:#a2b6ce;fill-opacity:1;fill-rule:evenodd;stroke:none"
         id="path7184" />
    </g>
    <g
       id="g7186"
       transform="translate(507.4482,216.8408)">
      <path
         d="m 0,0 -2.969,20.79 -10.096,20.193 -19.602,13.661 -11.878,-13.067 -22.57,24.353 -21.977,43.953 -28.51,18.412 -19.007,35.043 -18.411,-10.097 -8.316,-32.073 -30.886,12.473 -19.007,43.952 -24.945,17.819 -27.322,-16.631 -22.571,-49.891 -26.727,-15.444 -8.316,-14.255 -16.036,14.849 -30.886,-54.05 -15.443,1.189 -22.57,-42.767 23.096,25.316 14.203,1.529 9.396,11.144 41.082,5.901 1.966,-36.493 17.919,-19.668 -1.748,20.76 3.057,-0.765 13.985,38.46 25.132,19.776 14.422,-1.748 22.507,-27.097 14.64,-33.653 20.757,-23.269 -7.428,41.517 11.798,26.659 13.988,6.009 27.315,-11.362 26.223,6.774 14.639,-18.356 6.119,10.489 36.71,-38.898 1.749,7.431 31.465,-1.967 z"
         style="fill:#e5eef9;fill-opacity:1;fill-rule:evenodd;stroke:none"
         id="path7188" />
    </g>
    <g
       id="g7190"
       transform="translate(219.2976,180.9216)">
      <path
         d="m 0,0 -39.334,3.932 -47.198,-13.985 -29.281,6.557 -51.598,-10.476 -36.231,-19.006 245.597,-19.467 323.406,13.053 14.854,23.043 h -23.166 l -24.351,7.723 -12.789,-7.545 -46.763,11.801 H 256.102 L 220.265,1.747 200.6,-9.617 166.074,-14.424 138.976,-1.751 114.503,-8.305 72.111,-1.311 56.377,-6.557 17.482,9.178 Z"
         style="fill:#448733;fill-opacity:1;fill-rule:nonzero;stroke:none"
         id="path7192" />
    </g>
    <path
       d="M 0,0 H 599.513 V 141.529 H 0 Z"
       style="fill:#4d433a;fill-opacity:1;fill-rule:nonzero;stroke:none"
       id="path7194" />
    <g
       id="g7196"
       transform="translate(408.9672,152.0766)">
      <path
         d="m 0,0 -136.356,6.991 -51.569,-10.489 -89.155,6.993 -116.232,-7.628 -15.655,-0.334 V -16.609 H 190.545 V 12.496 L 153.832,-2.624 89.153,13.982 38.458,18.353 Z"
         style="fill:#6fbc3a;fill-opacity:1;fill-rule:nonzero;stroke:none"
         id="path7198" />
    </g>
    <g
       id="g7200"
       transform="translate(261.9131,299.4644)">
      <path
         d="m 0,0 -12.452,33.431 -7.649,-0.656 -6.773,13.112 2.403,-28.189 -14.64,5.9 10.488,-24.255 16.389,-6.555 z"
         style="fill:#a2b6ce;fill-opacity:1;fill-rule:evenodd;stroke:none"
         id="path7202" />
    </g>
    <g
       id="g7204"
       transform="translate(338.1748,289.6309)">
      <path
         d="m 0,0 -18.569,15.075 -6.556,24.693 -28.189,18.574 22.289,-21.852 -3.724,-12.272 -24.026,7.028 18.354,-16.39 15.952,-4.369 10.482,-16.496 20.547,-2.297 z"
         style="fill:#a2b6ce;fill-opacity:1;fill-rule:evenodd;stroke:none"
         id="path7206" />
    </g>
    <g
       id="g7208"
       transform="translate(412.4717,277.1758)">
      <path
         d="m 0,0 0.661,16.386 -14.422,28.189 -32.341,20.977 17.045,-20.322 8.96,-22.726 -0.662,-14.637 7.217,-27.755 13.985,4.589 z"
         style="fill:#a2b6ce;fill-opacity:1;fill-rule:evenodd;stroke:none"
         id="path7210" />
    </g>
    <g
       id="g7212">
      <g
         id="g7214"
         clip-path="url(#clipPath7218)">
        <g
           id="g7220"
           transform="translate(127.1245,373.2158)">
          <path
             d="m 0,0 c 54.807,0 99.508,44.701 99.508,99.509 0,54.807 -44.701,99.508 -99.508,99.508 -54.808,0 -99.509,-44.701 -99.509,-99.508 C -99.509,44.701 -54.808,0 0,0"
             style="fill:#9a7788;fill-opacity:1;fill-rule:evenodd;stroke:none"
             id="path7222" />
        </g>
        <g
           id="g7224"
           transform="translate(127.1235,552.8545)">
          <path
             d="m 0,0 c 44.255,0 80.13,-35.875 80.13,-80.13 0,-44.255 -35.875,-80.13 -80.13,-80.13 -44.254,0 -80.13,35.875 -80.13,80.13 C -80.13,-35.875 -44.254,0 0,0"
             style="fill:#a98b99;fill-opacity:1;fill-rule:evenodd;stroke:none"
             id="path7226" />
        </g>
        <g
           id="g7228"
           transform="translate(127.1235,533.4761)">
          <path
             d="m 0,0 c 33.552,0 60.752,-27.199 60.752,-60.751 0,-33.553 -27.2,-60.752 -60.752,-60.752 -33.552,0 -60.751,27.199 -60.751,60.752 C -60.751,-27.199 -33.552,0 0,0"
             style="fill:#baa0ab;fill-opacity:1;fill-rule:evenodd;stroke:none"
             id="path7230" />
        </g>
        <g
           id="g7232"
           transform="translate(127.1235,514.0977)">
          <path
             d="m 0,0 c 22.851,0 41.373,-18.523 41.373,-41.373 0,-22.85 -18.522,-41.373 -41.373,-41.373 -22.85,0 -41.372,18.523 -41.372,41.373 C -41.372,-18.523 -22.85,0 0,0"
             style="fill:#cab4bd;fill-opacity:1;fill-rule:evenodd;stroke:none"
             id="path7234" />
        </g>
        <g
           id="g7236"
           transform="translate(127.1245,450.73)">
          <path
             d="M 0,0 C 12.114,0 21.994,9.88 21.994,21.995 21.994,34.108 12.114,43.99 0,43.99 -12.115,43.99 -21.995,34.108 -21.995,21.995 -21.995,9.88 -12.115,0 0,0"
             style="fill:#dac9d1;fill-opacity:1;fill-rule:evenodd;stroke:none"
             id="path7238" />
        </g>
        <g
           id="g7240"
           transform="translate(378.5547,432.4902)">
          <path
             d="m 0,0 c 0.43,0.89 0.953,1.727 1.553,2.499 -1.114,3.107 -1.723,6.456 -1.723,9.948 0,16.263 13.183,29.447 29.445,29.447 11.327,0 21.157,-6.395 26.082,-15.769 2.921,1.164 6.106,1.804 9.438,1.804 11.844,0 21.799,-8.073 24.668,-19.016 5.3,-0.829 9.741,-4.244 11.994,-8.913 z"
             style="fill:#dac9d1;fill-opacity:1;fill-rule:evenodd;stroke:none"
             id="path7242" />
        </g>
        <g
           id="g7244"
           transform="translate(301.2754,541.9863)">
          <path
             d="m 0,0 c -3.435,3.293 -8.095,5.317 -13.229,5.317 -10.558,0 -19.119,-8.559 -19.119,-19.118 0,-2.979 0.683,-5.799 1.898,-8.312 h 138.896 c 1.396,2.891 2.177,6.134 2.177,9.559 0,12.165 -9.861,22.027 -22.026,22.027 -4.988,0 -9.585,-1.658 -13.277,-4.45 C 70.274,7.856 64.456,9.473 58.258,9.473 46.816,9.473 36.661,3.971 30.293,-4.534 24.251,-0.918 17.184,1.161 9.629,1.161 6.311,1.161 3.086,0.756 0,0"
             style="fill:#dac9d1;fill-opacity:1;fill-rule:evenodd;stroke:none"
             id="path7246" />
        </g>
        <g
           id="g7248"
           transform="translate(7.0244,306.7241)">
          <path
             d="m 0,0 c 0.901,3.239 3.532,5.76 6.836,6.498 0.122,13.752 11.306,24.863 25.086,24.863 3.593,0 7.009,-0.756 10.099,-2.116 2.841,8.268 10.686,14.212 19.919,14.212 11.63,0 21.058,-9.427 21.058,-21.058 0,-0.199 -0.004,-0.398 -0.01,-0.596 2.887,1.248 6.071,1.941 9.416,1.941 10.574,0 19.532,-6.912 22.606,-16.463 2.163,1.884 4.99,3.023 8.083,3.023 6.118,0 11.193,-4.459 12.155,-10.304 z"
             style="fill:#dac9d1;fill-opacity:1;fill-rule:evenodd;stroke:none"
             id="path7250" />
        </g>
        <g
           id="g7252"
           transform="translate(497.9648,503.708)">
          <path
             d="m 0,0 c -0.822,0.454 -1.771,0.712 -2.777,0.712 -3.182,0 -5.762,-2.579 -5.762,-5.761 0,-0.536 0.075,-1.054 0.212,-1.546 h 84.85 c 0.066,0.411 0.102,0.834 0.102,1.265 0,4.268 -3.459,7.729 -7.727,7.729 -2.308,0 -4.377,-1.009 -5.792,-2.61 -2.391,5.033 -7.521,8.513 -13.462,8.513 -3.495,0 -6.706,-1.203 -9.245,-3.216 C 38.317,9.951 33.487,13.36 27.859,13.36 22.13,13.36 17.227,9.825 15.211,4.816 14.081,5.073 12.906,5.209 11.699,5.209 7.056,5.209 2.883,3.198 0,0"
             style="fill:#dac9d1;fill-opacity:1;fill-rule:evenodd;stroke:none"
             id="path7254" />
        </g>
      </g>
    </g>
  </g>
</svg>
