<?xml version="1.0"?>
<svg xmlns:rdf="http://www.w3.org/1999/02/22-rdf-syntax-ns#" xmlns="http://www.w3.org/2000/svg" xmlns:cc="http://creativecommons.org/ns#" xmlns:dc="http://purl.org/dc/elements/1.1/" xmlns:svg="http://www.w3.org/2000/svg" id="svg2" fill-rule="evenodd" xml:space="preserve" viewBox="0 0 215.9 279.4" version="1.0">
 <defs id="defs4">
  <style id="style6" type="text/css">
    .str1 {stroke:#1F1A17;stroke-width:0.0762}
    .str2 {stroke:#1F1A17;stroke-width:0.3528}
    .str0 {stroke:#1F1A17;stroke-width:0.7056}
    .fil0 {fill:none}
    .fil1 {fill:#007CC3}
    .fil5 {fill:#1F1A17}
    .fil3 {fill:#71625B}
    .fil4 {fill:#AAA9A9}
    .fil2 {fill:white}
    .fil7 {fill:#ECCCB7}
    .fil6 {fill:#ECD4C5}
    .fil8 {fill:#EFD3B6}
  </style>
 </defs>
 <g id="Capa_x0020_1" transform="matrix(2.7352 0 0 2.7352 -151.77 -239.11)">
  <g id="_247765552" stroke="#1f1a17">
   <polygon id="_53855016" class="fil0 str0" stroke-width=".7056" fill="none" points="91.57 152.48 83.469 143.6 76.599 135.76"/>
   <polyline id="_248495424" class="fil0 str0" stroke-width=".7056" fill="none" points="92.594 181.25 93.693 170.6 94.611 171.56"/>
   <line id="_53801528" y2="181.43" stroke-width=".0762" class="fil0 str1" x2="95.091" y1="172.56" x1="95.99" fill="none"/>
   <polygon id="_247767872" class="fil0 str0" stroke-width=".7056" fill="none" points="89.715 146.9 84.178 144.66"/>
   <polyline id="_248375440" class="fil0 str0" stroke-width=".7056" fill="none" points="89.715 146.9 94.498 147.99 98.194 147.99 103.41 146.69 108.02 144.05"/>
   <path id="_250256496" d="m79.825 134.48c-5.249 1.66-10.144 3.72-15.028 6.24l-3.665 2.27-3.856 2.97-4.722 4.62-2.152 2.99 2.64 4.83c2.011 2.82 4.129 5.41 6.593 7.86 3.118 2.77 6.425 5.23 9.978 7.41l7.269 3.59 9.574 3 9.218 0.93 6.406-0.11 7.57-1.36 8.12-2.84c2.83-1.37 5.46-2.9 8.06-4.65 3.7-2.48 7.83-4.36 11.23-7.23l2.46-3.23-1.54-3.01-2.92-4.38-5.33-6.05-3.15-2.88-6.73-4.87-4.03-2.2-4.34-1.78 0.13-0.26" stroke-width=".7056" fill="none" class="fil0 str0"/>
   <path id="_248966504" d="m96.237 184.84c-0.268 0.03-0.459 0.01-0.586 0.02-0.211 0.01-0.247 0.08-0.175 0.52 0.04 0.25-0.075-0.04-0.108 0.22-0.018 0.14-0.028 0.25 0.108 0.33 0.149 0.08 0.409 0.01 0.435 0.22 0.055 0.41-0.293 0.49-0.652 0.54-0.298 0.04-0.217 0.43-0.217 0.76" stroke-width=".3528" fill="none" class="fil0 str2"/>
   <path id="_247916744" d="m96.026 185.02c0.128 0.59 1.28 1.11 0.894 1.73-0.164 0.27-0.544 0.21-0.65 0.62-0.086 0.34 0.027 0.42 0.271 0.57 0.329 0.21 0.464 0.87-0.081 0.87-0.075 0-0.608 0.08-0.624 0.14-0.013 0.04-0.054 0.29-0.108 0.29" stroke-width=".3528" fill="none" class="fil0 str2"/>
   <path id="_248496072" d="m96.54 184.87c0.022 0.32 0.651 0.49 0.651 0.91 0 0.21 0.014 0.31 0.082 0.51 0.105 0.32 0.325 0.26 0.325 0.6 0 0.28 0.203 0.49 0.433 0.57" stroke-width=".3528" fill="none" class="fil0 str2"/>
   <polygon id="_55191504" class="fil1 str0" stroke-width=".7056" fill="#007cc3" points="76.316 135.76 71.646 137.5 69.143 138.6 67.302 139.47 65.776 140.22 63.919 141.26 61.696 142.64 59.836 143.99 58.167 145.27 56.658 146.56 54.404 148.77 52.554 150.58 51.478 152.07 50.402 153.57 51.722 155.98 52.667 157.72 54.212 160 55.795 162.02 57.438 163.94 58.968 165.58 60.666 167.15 62.207 168.44 63.576 169.52 65.384 170.86 67.79 172.51 70.25 173.99 72.254 174.98 74.215 175.94 76.882 177.26 78.984 177.92 81.669 178.76 84.028 179.5 85.439 179.94 86.456 180.26 88.226 180.36 92.596 180.88 92.663 168.98 92.158 166.87 91.94 165.54 92.198 164 92.701 162.23 92.71 160.6 92.728 157.34 92.065 153.89 90.896 153.2 88.734 151.91 87.436 151.14 85.974 149.95 84.807 148.46 86.46 148.89 87.211 148.21 87.46 147.98"/>
   <line id="_53241600" y2="169.58" stroke-width=".7056" class="fil0 str0" x2="62.756" y1="154.08" x1="69.28" fill="none"/>
   <polyline id="_247813280" class="fil0 str0" stroke-width=".7056" fill="none" points="76.316 135.76 86.454 157.34 92.745 154.3"/>
   <line id="_249926368" y2="155.82" stroke-width=".7056" class="fil0 str0" x2="89.6" y1="180.78" x1="88.202" fill="none"/>
   <polyline id="_249848160" class="fil0 str0" stroke-width=".7056" fill="none" points="91.57 152.48 92.745 154.3 92.594 181.25"/>
   <ellipse id="_53550504" rx="1.7427" ry="1.4691" class="fil2 str0" cy="177.56" cx="90.585" stroke-width=".7056" fill="#fff"/>
   <ellipse id="_53435800" rx="1.7427" ry="1.4691" class="fil2 str0" cy="170.38" cx="90.802" stroke-width=".7056" fill="#fff"/>
   <polygon id="_251300424" class="fil1 str0" stroke-width=".7056" fill="#007cc3" points="113.66 137.76 119.03 140.4 122.41 142.7 124.54 144.24 127.06 146.16 129.74 148.6 131.6 150.71 134.09 153.54 135.81 155.76 137.98 159.03 139.53 162.04 137.07 165.27 134.31 167.32 132.39 168.54 130.45 169.69 129.14 170.45 127.21 171.62 124.88 173.13 123.83 173.8 120.92 175.52 118.41 176.84 116.3 177.66 112.6 178.96 110.82 179.59 107.91 180.31 105.87 180.68 102.81 180.45 100.81 181.38 98.2 181.42 92.669 180.85 93.698 170.87 95.427 172.47 95.996 172.84 97.469 173.51 98.872 173.17 98.852 160.22 97.439 159.98 95.854 160.36 94.418 161.14 102.98 150.65 106.51 146.23"/>
   <polyline id="_250906880" class="fil0 str0" stroke-width=".7056" fill="none" points="127.43 157.79 116.63 166.87 98.405 159.95 97.078 172.34 112.62 178.79 111.26 179.21"/>
   <line id="_53393368" y2="139.71" stroke-width=".7056" class="fil0 str0" x2="117.25" y1="160.52" x1="100.46" fill="none"/>
   <path id="_250616360" d="m105.68 187.18c-0.2-0.61-1.31-1.28-1.25-1.95 0.05-0.55-1.44-0.22-1.96-1.15-0.3-0.55 0.05-1.33 0.33-1.79 0.77-1.26-0.84-1.39-1.57-1.9-0.63-0.43-1.02-0.73-1.525-1.3-0.543 1.19 1.965 1.89 1.305 3.26-0.17 0.34-0.38-0.01-0.33 0.59 0.05 0.61 1.2 1.04 1.25 1.47 0.07 0.62 0.06 1.41 0.06 2.12 0 0.27 0.79 0.45 0.97 0.81" stroke-width=".3528" fill="none" class="fil0 str2"/>
   <polygon id="_52392736" class="fil3 str2" stroke-width=".3528" fill="#71625b" points="96.23 149.55 97.434 159.7 98.08 159.66 96.936 149.17"/>
   <path id="_53901912" d="m99.977 178.76c1.383 2.2-0.206 0.01 1.083 0.98 0.49 0.37 1.33 0.21 1.74 0.43 0.73 0.41 1.79 0.72 1.79 1.53 0 1.6 2.93 0.41 2.93 1.84" stroke-width=".3528" fill="none" class="fil0 str2"/>
   <polygon id="_249058184" class="fil3 str2" stroke-width=".3528" fill="#71625b" points="98.838 173.58 99.977 178.76 99.434 179.42 98.232 173.46"/>
   <path id="_249337712" d="m85.999 149.46c-0.26-0.13-0.399-0.18-0.569-0.46-0.144-0.24-0.494-0.34-0.623-0.54-0.037-0.06 0.218-0.22 0.271-0.27 0.15-0.15 0.165-0.21 0.325-0.06 0.186 0.18 0.254 0.43 0.433 0.6 0.122 0.11 0.453 0.16 0.624 0.16" stroke-width=".3528" fill="none" class="fil0 str2"/>
   <path id="_248543032" d="m95.43 184.66c0.098 0.22-0.003-12.19-0.003-12.19l1.8 0.68 0.019 12.03-1.816-0.52z" stroke-width=".7056" fill="#aaa9a9" class="fil4 str0"/>
   <path id="_53910960" d="m96.556 159.43c0.098 0.41-1.086-4.83-1.086-4.83l-7.951-6.56-1.887 1.48 1.804 1.62 4.629 2.75 1.396 1.47 0.951 5.51 2.271-1.03-0.127-0.41z" stroke-width=".7056" fill="#aaa9a9" class="fil4 str0"/>
   <polygon id="_247928328" class="fil5 str1" stroke-width=".0762" fill="#1f1a17" points="86.44 148.89 85.763 149.42 84.807 148.46 85.403 148.13"/>
   <path id="_52970672" d="m111.48 136.6c-0.19-0.09-0.39-0.18-0.59-0.25-0.11-0.03 0-0.02-0.11-0.05-0.08-0.02-0.22-0.11-0.36-0.18" stroke-width=".7056" fill="none" class="fil0 str0"/>
   <path id="_54928456" d="m79.462 134.6l-2.73 0.92 8.82 9.7 1.395 0.56 2.071 0.84 2.066 0.6 1.924 0.43 1.056 0.24 0.754 0.1h3.096l3.216-0.73 1.49-0.38 2.1-0.94 2.45-1.4 1.4-0.76 1.26-1.49 1-1.17 1.69-2.01 1.14-1.35-2.98-1.5-1.29 1.41-0.45 1.07-0.98 0.71-0.87 1.3-1.07 0.61-1.3 1.03-1.6 1.02-1.05 0.55-1.15 0.48-1.937 0.6s-2.865 0.39-3.132 0.39c-0.266 0.01-2.272-0.13-2.272-0.13s-1.688-0.33-1.968-0.41-2.448-0.91-2.448-0.91l-1.738-0.94-2.103-1.53-1.857-1.78-1.521-1.84-1.727-2.68-0.755-0.61z" stroke-width=".7056" fill="#ecd4c5" class="fil6 str0"/>
   <ellipse id="_248510384" rx="19.005" ry="24.838" class="fil7 str0" cy="120.6" cx="95.585" stroke-width=".7056" fill="#ecccb7"/>
   <path id="_247660000" d="m96.583 149.36c-0.287-0.2-0.367-0.16-0.19-0.46 0.099-0.17 0.054-1.41 0.054-1.74 0-0.26-0.306-0.27-0.325-0.49-0.027-0.29 0.046-0.45 0.108-0.7" stroke-width=".3528" fill="none" class="fil0 str2"/>
   <path id="_248406264" d="m96.23 149.55c-0.209-0.37-0.238-0.61-0.597-0.71-0.244-0.06-0.249-0.1-0.217-0.38 0.019-0.16 0.154-0.85 0.054-1.03-0.119-0.21-1.082-0.72-1.032-0.65" stroke-width=".3528" fill="none" class="fil0 str2"/>
   <path id="_248395800" d="m96.936 149.17c-0.287-0.33-0.228-0.4-0.108-0.81 0.138-0.49-0.31-1.34 0.38-1.42 0.095-0.01 0.38-0.66 0.38-0.76" stroke-width=".3528" fill="none" class="fil0 str2"/>
   <path id="_250906904" d="m76.366 120.6c2.166-3.06 5.99-6.28 4.551-6.28-2.809 0-1.33-1.97 0.233-2.85 0.256-0.15 2.269-1.3 2.329-1.42 0.301-0.62-1.979-0.6-2.096-0.72-0.541-0.55 1.375-1.39 1.63-1.42 5.388-0.63-2.316-2.19 1.397-5.22 3.265-2.66 16.76-3.069 20.96 0.71 1.76 1.59-1.63 3.15-1.63 3.56 0 0.4 2.79-0.76 2.79 0.71 0 1.76-2.27 1.9-1.16 1.9 4.74 0-0.03 3.8 2.1 3.8 4.15 0 7.68 9.23 7.68 4.03 0-11.08-5.23-13.14-8.15-20.874-0.5-1.311-0.7-2.75-0.7-4.27 0-2.17-2.56 0.02-2.56-1.423 0-5.869-0.42-0.867-2.79-0.237-3.118 0.827 2.08-3.672-2.567-0.712-0.406 0.259-4.191 3.738-4.191 2.372 0-2.63 1.648-3.81-1.398-1.423-5.059 3.964-9.311 6.897-13.973 10.197-3.196 2.27-2.048 13.47-2.793 18.22 0.049 0.36 0.115 1.09 0.338 1.35z" stroke-width=".7056" fill="#71625b" class="fil3 str0"/>
   <path id="_53529448" d="m96.247 173.15l5.583-12.82-5.583 12.82zc-1.675-0.98-3.051-2.63-3.705-4.7-1.257-3.98 0.633-7.96 4.219-8.91 1.076-0.28 2.182-0.26 3.238 0.02 0.631 0.17 1.251 0.43 1.831 0.77l-5.583 12.82z" stroke-width=".7056" fill="#efd3b6" class="fil8 str0"/>
   <polygon id="_249984408" class="fil1 str0" stroke-width=".7056" fill="#007cc3" points="99.59 173.38 96.695 172.12 101.52 161.04 104.31 162.02"/>
  </g>
 </g>
<metadata><rdf:RDF><cc:Work><dc:format>image/svg+xml</dc:format><dc:type rdf:resource="http://purl.org/dc/dcmitype/StillImage"/><cc:license rdf:resource="http://creativecommons.org/licenses/publicdomain/"/><dc:publisher><cc:Agent rdf:about="http://openclipart.org/"><dc:title>Openclipart</dc:title></cc:Agent></dc:publisher><dc:title>Nuralma</dc:title><dc:date>2006-11-27T02:24:26</dc:date><dc:description>clip art, clipart, faceless, faceless, image, man, man, media, people, people, png, public domain, svg, </dc:description><dc:source>http://openclipart.org/detail/1641/nuralma-by-nuralma-1641</dc:source><dc:creator><cc:Agent><dc:title>Nuralma</dc:title></cc:Agent></dc:creator><dc:subject><rdf:Bag><rdf:li>clip art</rdf:li><rdf:li>clipart</rdf:li><rdf:li>faceless</rdf:li><rdf:li>image</rdf:li><rdf:li>man</rdf:li><rdf:li>media</rdf:li><rdf:li>people</rdf:li><rdf:li>png</rdf:li><rdf:li>public domain</rdf:li><rdf:li>svg</rdf:li></rdf:Bag></dc:subject></cc:Work><cc:License rdf:about="http://creativecommons.org/licenses/publicdomain/"><cc:permits rdf:resource="http://creativecommons.org/ns#Reproduction"/><cc:permits rdf:resource="http://creativecommons.org/ns#Distribution"/><cc:permits rdf:resource="http://creativecommons.org/ns#DerivativeWorks"/></cc:License></rdf:RDF></metadata></svg>
